<?xml version="1.0" encoding="UTF-8"?>
<svg width="647px" height="245px" viewBox="0 0 647 245" version="1.1" xmlns="http://www.w3.org/2000/svg" xmlns:xlink="http://www.w3.org/1999/xlink">
    <title>logo</title>
    <g id="logo" stroke="none" stroke-width="1" fill="none" fill-rule="evenodd">
        <g id="Group-2" transform="translate(2.000000, 2.000000)">
            <rect id="Rectangle" fill-opacity="0.4" fill="#1A84FF" transform="translate(59.500000, 120.500000) rotate(-45.000000) translate(-59.500000, -120.500000) " x="18" y="79" width="83" height="83"></rect>
            <rect id="Rectangle-Copy-3" fill="#FFFFFF" transform="translate(119.500000, 180.500000) rotate(-45.000000) translate(-119.500000, -180.500000) " x="78" y="139" width="83" height="83"></rect>
            <rect id="Rectangle-Copy" fill-opacity="0.4" fill="#F33838" transform="translate(121.500000, 59.500000) rotate(-45.000000) translate(-121.500000, -59.500000) " x="80" y="18" width="83" height="83"></rect>
            <rect id="Rectangle-Copy-2" fill-opacity="0.4" fill="#FFEC1A" transform="translate(182.500000, 120.500000) rotate(-45.000000) translate(-182.500000, -120.500000) " x="141" y="79" width="83" height="83"></rect>
        </g>
        <g id="Group" transform="translate(122.500000, 122.500000) rotate(-315.000000) translate(-122.500000, -122.500000) translate(36.000000, 36.000000)" stroke="#1F1E1E" stroke-width="7">
            <rect id="Rectangle" x="0" y="0" width="173" height="173" rx="9"></rect>
            <line x1="1" y1="87" x2="170.5" y2="87.5" id="Line" stroke-linecap="square"></line>
            <line x1="86.5" y1="0.5" x2="86.5" y2="170.5" id="Line-Copy" stroke-linecap="square"></line>
        </g>
        <path d="M60.2651428,148.08 C67.8011428,148.08 74.1371428,146.52 79.2731428,143.4 L79.2731428,143.4 L79.2731428,118.344 L59.4731428,118.344 L59.4731428,127.272 L67.1771428,127.272 L67.1771428,135.336 C65.4491428,136.2 63.3131428,136.632 60.7691428,136.632 C56.2091428,136.632 52.5971428,135.312 49.9331428,132.672 C47.2691428,130.032 45.9371428,126.432 45.9371428,121.872 C45.9371428,118.944 46.6091428,116.376 47.9531428,114.168 C49.2971428,111.96 51.1331428,110.268 53.4611428,109.092 C55.7891428,107.916 58.4411428,107.328 61.4171428,107.328 C64.8731428,107.328 67.9331428,107.7 70.5971428,108.444 C73.2611428,109.188 75.6491428,110.4 77.7611428,112.08 L77.7611428,112.08 L77.7611428,99.984 C75.3611428,98.448 72.7571428,97.332 69.9491428,96.636 C67.1411428,95.94 63.9131428,95.592 60.2651428,95.592 C54.7931428,95.592 49.9811428,96.66 45.8291428,98.796 C41.6771428,100.932 38.4731428,103.98 36.2171428,107.94 C33.9611428,111.9 32.8331428,116.544 32.8331428,121.872 C32.8331428,127.2 33.9611428,131.844 36.2171428,135.804 C38.4731428,139.764 41.6771428,142.8 45.8291428,144.912 C49.9811428,147.024 54.7931428,148.08 60.2651428,148.08 Z" id="G" fill="#2068BA" fill-rule="nonzero"></path>
        <path d="M181.005143,148.08 C187.725143,148.08 192.777143,146.772 196.161143,144.156 C199.545143,141.54 201.237143,137.904 201.237143,133.248 C201.237143,130.512 200.805143,128.256 199.941143,126.48 C199.077143,124.704 197.697143,123.144 195.801143,121.8 C193.905143,120.456 191.253143,119.088 187.845143,117.696 C184.101143,116.208 181.533143,115.032 180.141143,114.168 C178.749143,113.304 178.053143,112.176 178.053143,110.784 C178.053143,109.392 178.737143,108.324 180.105143,107.58 C181.473143,106.836 183.309143,106.464 185.613143,106.464 C189.885143,106.464 194.133143,107.568 198.357143,109.776 L198.357143,109.776 L198.357143,98.616 C196.149143,97.56 193.845143,96.792 191.445143,96.312 C189.045143,95.832 186.309143,95.592 183.237143,95.592 C179.493143,95.592 176.181143,96.216 173.301143,97.464 C170.421143,98.712 168.177143,100.464 166.569143,102.72 C164.961143,104.976 164.157143,107.544 164.157143,110.424 C164.157143,113.928 165.213143,116.88 167.325143,119.28 C169.437143,121.68 172.821143,123.864 177.477143,125.832 C180.117143,126.936 182.061143,127.8 183.309143,128.424 C184.557143,129.048 185.505143,129.732 186.153143,130.476 C186.801143,131.22 187.125143,132.096 187.125143,133.104 C187.125143,134.448 186.525143,135.48 185.325143,136.2 C184.125143,136.92 182.349143,137.28 179.997143,137.28 C177.453143,137.28 174.777143,136.944 171.969143,136.272 C169.161143,135.6 166.461143,134.592 163.869143,133.248 L163.869143,133.248 L163.869143,144.696 C165.885143,145.752 168.453143,146.58 171.573143,147.18 C174.693143,147.78 177.837143,148.08 181.005143,148.08 Z" id="S" fill="#B9AA0B" fill-rule="nonzero"></path>
        <polygon id="H" fill="#982C2C" fill-rule="nonzero" points="113.189143 86 113.189143 65.696 132.917143 65.696 132.917143 86 145.661143 86 145.661143 35.672 132.917143 35.672 132.917143 55.112 113.189143 55.112 113.189143 35.672 100.445143 35.672 100.445143 86"></polygon>
        <path d="M331.611428,163 L331.611428,145.12 L295.131428,145.12 L295.131428,79.12 L273.891428,79.12 L273.891428,163 L331.611428,163 Z M358.554286,164.8 C362.794286,164.8 366.554286,164.2 369.834286,163 C373.114286,161.8 375.834286,160.16 377.994286,158.08 L377.994286,158.08 L377.994286,163 L397.794286,163 L397.794286,127.96 C397.794286,120.28 395.054286,114.3 389.574286,110.02 C384.094286,105.74 375.994286,103.6 365.274286,103.6 C360.794286,103.6 356.474286,103.98 352.314286,104.74 C348.154286,105.5 344.794286,106.48 342.234286,107.68 L342.234286,107.68 L342.234286,122.2 C348.074286,119.48 354.514286,118.12 361.554286,118.12 C371.634286,118.12 376.674286,121.2 376.674286,127.36 L376.674286,127.36 L376.674286,128.56 C374.434286,127.44 371.754286,126.54 368.634286,125.86 C365.514286,125.18 362.394286,124.84 359.274286,124.84 C351.274286,124.84 345.134286,126.58 340.854286,130.06 C336.574286,133.54 334.434286,138.52 334.434286,145 C334.434286,151.24 336.654286,156.1 341.094286,159.58 C345.534286,163.06 351.354286,164.8 358.554286,164.8 Z M364.794286,151.84 C361.994286,151.84 359.854286,151.24 358.374286,150.04 C356.894286,148.84 356.154286,147.16 356.154286,145 C356.154286,142.68 356.914286,140.92 358.434286,139.72 C359.954286,138.52 362.114286,137.92 364.914286,137.92 C369.314286,137.92 373.234286,139.08 376.674286,141.4 L376.674286,141.4 L376.674286,146.44 C375.554286,148.04 373.914286,149.34 371.754286,150.34 C369.594286,151.34 367.274286,151.84 364.794286,151.84 Z M448.617143,164.8 C454.617143,164.8 459.937143,163.54 464.577143,161.02 C469.217143,158.5 472.817143,154.94 475.377143,150.34 C477.937143,145.74 479.217143,140.4 479.217143,134.32 C479.217143,128.32 477.937143,122.98 475.377143,118.3 C472.817143,113.62 469.237143,110 464.637143,107.44 C460.037143,104.88 454.697143,103.6 448.617143,103.6 C444.777143,103.6 441.117143,104.18 437.637143,105.34 C434.157143,106.5 431.257143,108.08 428.937143,110.08 L428.937143,110.08 L428.937143,74.32 L407.817143,74.32 L407.817143,163 L428.217143,163 L428.217143,157.24 C433.577143,162.28 440.377143,164.8 448.617143,164.8 Z M443.097143,148.48 C439.897143,148.48 437.017143,147.66 434.457143,146.02 C431.897143,144.38 430.057143,142.16 428.937143,139.36 L428.937143,139.36 L428.937143,129.16 C430.057143,126.36 431.897143,124.14 434.457143,122.5 C437.017143,120.86 439.897143,120.04 443.097143,120.04 C447.417143,120.04 450.897143,121.32 453.537143,123.88 C456.177143,126.44 457.497143,129.92 457.497143,134.32 C457.497143,138.72 456.177143,142.18 453.537143,144.7 C450.897143,147.22 447.417143,148.48 443.097143,148.48 Z M521.28,164.8 C525.92,164.8 530.46,164.42 534.9,163.66 C539.34,162.9 543.04,161.92 546,160.72 L546,160.72 L546,146.8 C543.12,147.92 539.7,148.8 535.74,149.44 C531.78,150.08 527.92,150.4 524.16,150.4 C518.64,150.4 514.28,149.68 511.08,148.24 C507.88,146.8 505.88,144.48 505.08,141.28 L505.08,141.28 L551.04,141.28 L551.04,133.48 C551.04,127.8 549.78,122.7 547.26,118.18 C544.74,113.66 541.02,110.1 536.1,107.5 C531.18,104.9 525.28,103.6 518.4,103.6 C507.6,103.6 499.34,106.36 493.62,111.88 C487.9,117.4 485.04,124.92 485.04,134.44 C485.04,144.12 488.26,151.6 494.7,156.88 C501.14,162.16 510,164.8 521.28,164.8 Z M531.12,128.08 L505.08,128.08 C505.4,125.04 506.68,122.62 508.92,120.82 C511.16,119.02 514.2,118.12 518.04,118.12 C521.96,118.12 525.04,119 527.28,120.76 C529.52,122.52 530.8,124.96 531.12,128.08 L531.12,128.08 Z M580.382857,163 L580.382857,74.32 L559.262857,74.32 L559.262857,163 L580.382857,163 Z M615.845714,164.8 C624.885714,164.8 631.785714,163.18 636.545714,159.94 C641.305714,156.7 643.685714,152.32 643.685714,146.8 C643.685714,143.28 643.105714,140.38 641.945714,138.1 C640.785714,135.82 638.805714,133.84 636.005714,132.16 C633.205714,130.48 629.245714,128.96 624.125714,127.6 C624.525714,127.68 623.445714,127.4 620.885714,126.76 C616.965714,125.8 614.245714,125 612.725714,124.36 C611.205714,123.72 610.445714,122.8 610.445714,121.6 C610.445714,120.32 611.205714,119.42 612.725714,118.9 C614.245714,118.38 616.365714,118.12 619.085714,118.12 C622.525714,118.12 626.225714,118.64 630.185714,119.68 C634.145714,120.72 637.325714,122.04 639.725714,123.64 L639.725714,123.64 L639.725714,108.4 C637.405714,106.96 633.945714,105.8 629.345714,104.92 C624.745714,104.04 620.365714,103.6 616.205714,103.6 C607.645714,103.6 600.905714,105.14 595.985714,108.22 C591.065714,111.3 588.605714,115.96 588.605714,122.2 C588.605714,125.72 589.285714,128.64 590.645714,130.96 C592.005714,133.28 594.085714,135.2 596.885714,136.72 C599.685714,138.24 603.525714,139.72 608.405714,141.16 C611.285714,141.96 613.825714,142.7 616.025714,143.38 C618.225714,144.06 619.745714,144.7 620.585714,145.3 C621.425714,145.9 621.845714,146.68 621.845714,147.64 C621.845714,148.84 621.205714,149.64 619.925714,150.04 C618.645714,150.44 616.605714,150.64 613.805714,150.64 C609.965714,150.64 605.745714,150.02 601.145714,148.78 C596.545714,147.54 592.605714,145.96 589.325714,144.04 L589.325714,144.04 L589.325714,159.52 C592.285714,161.2 596.285714,162.5 601.325714,163.42 C606.365714,164.34 611.205714,164.8 615.845714,164.8 Z" id="Labels" fill="#61605D" fill-rule="nonzero"></path>
    </g>
</svg>